# xmcd
#
# Track frame offsets:
#	150
#	6036
#	30450
#	45014
#	75169
#	88995
#	93007
#	109071
#	131060
#	148721
#	165412
#	172940
#	194812
#	219563
#	240552
#	264561
#	286383
#	305821
#
# Disc length: 4251 seconds
#
# Revision: 1
# Processed by: cddbd v1.5.1PL0 Copyright (c) Steve Scherf et al.
# Submitted via: EasyCDDAExtractor 8.0.2.1
#
DISCID=ea109912
DTITLE=Dio - Effenaar Eindhoven 06-10-05 Disc 1
DYEAR=2005
DGENRE=Hard Rock
TTITLE0=Intro
TTITLE1=Tarot Woman
TTITLE2=Sign Of The Southern Cross
TTITLE3=One Night In The City
TTITLE4=Orchestral Medley
TTITLE5=Dio Intro
TTITLE6=Stand Up And Shout
TTITLE7=Holy Diver
TTITLE8=Gypsy
TTITLE9=Drumsolo
TTITLE10=Drum and Keyboard Intermezzo
TTITLE11=Caught In The Middle
TTITLE12=Don't Talk To Strangers
TTITLE13=Straight Through The Heart
TTITLE14=Invisible
TTITLE15=Rainbow In The Dark
TTITLE16=Shame On The Night
TTITLE17=Guitar Solo
EXTD=
EXTT0=
EXTT1=
EXTT2=
EXTT3=
EXTT4=
EXTT5=
EXTT6=
EXTT7=
EXTT8=
EXTT9=
EXTT10=
EXTT11=
EXTT12=
EXTT13=
EXTT14=
EXTT15=
EXTT16=
EXTT17=
PLAYORDER=
